<svg id="Layer_1" data-name="Layer 1" xmlns="http://www.w3.org/2000/svg" width="101" height="174" viewBox="0 0 101 174">
  <defs>
    <style>
      .cls-1 {
        fill: #81cde4;
      }
    </style>
  </defs>
  <title>icon</title>
  <g>
    <path class="cls-1" d="M92.65,170.44,8.35,86.14C3.84,81.63.16,74.28.16,69.77V3.56C.16-1,3.84-1,8.35,3.56l84.3,84.3c4.51,4.51,8.19,11.86,8.19,16.37v66.21C100.84,175,97.16,175,92.65,170.44ZM8.35,6C5.16,2.79,2.57,2.79,2.57,6V72.18c0,3.18,2.59,8.36,5.78,11.55L92.65,168c3.19,3.19,5.78,3.18,5.78,0V101.82c0-3.18-2.59-8.36-5.78-11.55Z"/>
    <g>
      <path class="cls-1" d="M36.45,86.07,15.53,52.86V50.32l20.78,9.81v4L19.92,56,36.45,81.78Z"/>
      <path class="cls-1" d="M46.23,95.41l-2.65-3.87,11.14-13,2.65,4Z"/>
      <path class="cls-1" d="M64.55,114.17v-4.25L81,117.14,64.64,92.46v-4l20.83,31.8v2.54Z"/>
    </g>
  </g>
</svg>
