<svg id="Layer_1" data-name="Layer 1" xmlns="http://www.w3.org/2000/svg" width="101" height="174" viewBox="0 0 101 174">
  <defs>
    <style>
      .cls-1 {
        fill: #81cde4;
      }
    </style>
  </defs>
  <title>icon</title>
  <g>
    <path class="cls-1" d="M92.65,170.44,8.35,86.14C3.84,81.63.16,74.28.16,69.77V3.56C.16-1,3.84-1,8.35,3.56l84.3,84.3c4.51,4.51,8.19,11.86,8.19,16.37v66.21C100.84,175,97.16,175,92.65,170.44ZM8.35,6C5.16,2.78,2.57,2.79,2.57,6V72.18c0,3.18,2.59,8.36,5.78,11.55L92.65,168c3.19,3.18,5.78,3.18,5.78,0V101.82c0-3.18-2.59-8.36-5.78-11.55Z"/>
    <path class="cls-1" d="M16.41,32.58c-3.67-3.68-6.67-9.66-6.67-13.34s3-3.67,6.67,0,6.67,9.66,6.67,13.34S20.09,36.26,16.41,32.58Zm0-10.93c-2.34-2.34-4.25-2.34-4.25,0s1.91,6.17,4.25,8.52,4.26,2.35,4.26,0S18.76,24,16.41,21.65Z"/>
    <path class="cls-1" d="M32.23,48.39c-3.68-3.67-6.67-9.66-6.67-13.33s3-3.68,6.67,0,6.66,9.66,6.66,13.33S35.9,52.07,32.23,48.39Zm0-10.92c-2.35-2.35-4.26-2.35-4.26,0s1.91,6.16,4.26,8.51,4.25,2.35,4.25,0S34.57,39.81,32.23,37.47Z"/>
    <path class="cls-1" d="M48,64.2c-3.68-3.67-6.67-9.66-6.67-13.33s3-3.68,6.67,0,6.67,9.66,6.67,13.34S51.72,67.88,48,64.2Zm0-10.92c-2.35-2.35-4.26-2.35-4.26,0s1.91,6.17,4.26,8.51,4.26,2.35,4.26,0S50.39,55.63,48,53.28Z"/>
  </g>
</svg>
