<svg id="Layer_1" data-name="Layer 1" xmlns="http://www.w3.org/2000/svg" width="1920" height="1191.12" viewBox="0 0 1920 1191.12"><defs><style>.cls-1{opacity:0.34;}.cls-2,.cls-3{fill:none;stroke:#0c0f12;stroke-miterlimit:10;}.cls-2{stroke-width:1.07px;}</style></defs><title>lines-bg</title><g class="cls-1"><polygon class="cls-2" points="-750.67 197.79 -208.25 -115.38 1155.14 671.77 612.72 984.94 -750.67 197.79"/><line class="cls-2" x1="515.33" y1="928.71" x2="1057.75" y2="615.55"/><line class="cls-2" x1="417.95" y1="872.49" x2="960.37" y2="559.32"/><line class="cls-2" x1="320.56" y1="816.26" x2="862.98" y2="503.1"/><line class="cls-2" x1="223.18" y1="760.04" x2="765.6" y2="446.87"/><line class="cls-2" x1="125.79" y1="703.81" x2="668.21" y2="390.65"/><line class="cls-2" x1="28.41" y1="647.59" x2="570.83" y2="334.42"/><line class="cls-2" x1="-68.98" y1="591.36" x2="473.44" y2="278.19"/><line class="cls-2" x1="-166.36" y1="535.14" x2="376.06" y2="221.97"/><line class="cls-2" x1="-263.75" y1="478.91" x2="278.67" y2="165.74"/><line class="cls-2" x1="-361.13" y1="422.69" x2="181.29" y2="109.52"/><line class="cls-2" x1="-458.52" y1="366.46" x2="83.9" y2="53.29"/><line class="cls-2" x1="-298.66" y1="-63.19" x2="1064.73" y2="723.97"/><line class="cls-2" x1="-389.06" y1="-10.99" x2="974.33" y2="776.16"/><line class="cls-2" x1="-479.46" y1="41.2" x2="883.93" y2="828.36"/><line class="cls-2" x1="-569.87" y1="93.4" x2="793.52" y2="880.55"/><line class="cls-2" x1="-660.27" y1="145.59" x2="703.12" y2="932.75"/></g><g class="cls-1"><line class="cls-3" x1="610.13" y1="1018.92" x2="1931.64" y2="255.95"/><line class="cls-3" x1="610.13" y1="1054.65" x2="1931.64" y2="291.68"/><line class="cls-3" x1="610.13" y1="1090.38" x2="1931.64" y2="327.41"/><line class="cls-3" x1="610.13" y1="1126.11" x2="1931.64" y2="363.14"/><line class="cls-3" x1="610.13" y1="1161.84" x2="1931.64" y2="398.87"/></g></svg>