<svg id="Layer_1" data-name="Layer 1" xmlns="http://www.w3.org/2000/svg" width="190" height="110" viewBox="0 0 190 110"><defs><style>.cls-1{fill:#e73c5f;}.cls-2{fill:#fff;}</style></defs><title>logo-blackBg</title><polygon class="cls-1" points="32.99 108.09 0.61 89.07 64.73 50.99 97.12 71.28 32.99 108.09"/><polygon class="cls-2" points="53.4 35.85 53.4 39.05 60.37 43.15 60.37 46.56 53.4 42.46 53.4 45.09 60.37 49.19 60.37 52.6 53.4 48.5 53.4 49.16 51.69 50.13 60.37 55.23 60.37 58.65 48.74 51.81 35.9 59.12 35.9 25.98 79.59 0.78 79.59 20.61 53.4 35.85"/><polygon class="cls-2" points="79.59 34.23 79.59 71.46 62.1 81.57 60.37 82.56 35.9 96.7 35.9 76.3 60.37 61.95 62.09 60.94 62.09 44.07 62.1 44.06 79.59 34.23"/><polygon class="cls-2" points="18.18 72.01 34.01 81.32 34.01 84.73 18.18 75.42 18.18 72.01"/><polygon class="cls-2" points="18.18 78.05 34.01 87.36 34.01 90.78 18.18 81.46 18.18 78.05"/><polygon class="cls-2" points="18.18 84.09 34.01 93.41 34.01 96.82 18.18 87.51 18.18 84.09"/><polygon class="cls-2" points="18.18 21.61 34.01 30.91 34.01 34.33 18.18 25.02 18.18 21.61"/><polygon class="cls-2" points="18.18 45.77 34.01 55.08 34.01 58.49 18.18 49.19 18.18 45.77"/><polygon class="cls-2" points="34.01 24.87 34.01 28.28 18.18 18.98 18.18 15.56 34.01 24.87"/><polygon class="cls-2" points="18.18 39.73 34.01 49.04 34.01 52.45 18.18 43.14 18.18 39.73"/><polygon class="cls-2" points="18.18 27.65 34.01 36.96 34.01 40.37 18.18 31.06 18.18 27.65"/><polygon class="cls-2" points="18.18 65.97 34.01 75.28 34.01 78.69 18.18 69.38 18.18 65.97"/><polygon class="cls-2" points="18.18 33.69 34.01 43 34.01 46.41 18.18 37.1 18.18 33.69"/><path class="cls-2" d="M103.15,33.73h3.09V51.5h-3.09Z"/><path class="cls-2" d="M121.11,46.25H112a3.32,3.32,0,0,0,3.41,3.26,3.67,3.67,0,0,0,2.9-1.24L120.35,50a6.55,6.55,0,0,1-4.93,1.88c-4.1,0-6.7-2.73-6.7-6.33A6.14,6.14,0,0,1,115,39.2a5.84,5.84,0,0,1,6.08,6.21ZM115,41.52c-1.63,0-2.7,1.17-3,2.89h6a2.93,2.93,0,0,0-3-2.89Z"/><path class="cls-2" d="M135.16,39.51v12h-2.54L132.27,50a5,5,0,0,1-4,1.84c-3.13,0-5.58-2.38-5.58-6.33s2.45-6.33,5.58-6.33a5,5,0,0,1,4,1.84l.36-1.53Zm-2.78,6c0-2.14-1.35-3.72-3.31-3.72s-3.23,1.58-3.23,3.72,1.31,3.72,3.23,3.72S132.38,47.67,132.38,45.53Z"/><path class="cls-2" d="M145.32,39.2c2.06,0,4.43,1.16,4.43,4.83V51.5h-3.09V44.83c0-1.84-.72-3-2.38-3-1.19,0-2.43.8-2.63,3.13V51.5h-3.09v-12h2.72l.35,1.37a4.56,4.56,0,0,1,3.69-1.67Z"/><path class="cls-2" d="M164.54,33.72V51.5H162L161.65,50a5,5,0,0,1-4,1.84c-3.13,0-5.57-2.38-5.57-6.33s2.45-6.33,5.57-6.33a5,5,0,0,1,3.82,1.61V33.73Zm-2.78,11.81c0-2.14-1.34-3.72-3.3-3.72s-3.24,1.58-3.24,3.72,1.31,3.72,3.24,3.72S161.76,47.67,161.76,45.53Z"/><path class="cls-2" d="M174.06,39.2a4.26,4.26,0,0,1,1.89.41l-.88,2.57a2.68,2.68,0,0,0-1.18-.25c-1.85,0-2.86,1.67-2.86,3.61v6h-3.09v-12h2.7l.39,1.65a3.31,3.31,0,0,1,3-2Z"/><path class="cls-2" d="M176.72,45.53a6.55,6.55,0,1,1,6.54,6.33A6.22,6.22,0,0,1,176.72,45.53Zm9.9,0a3.37,3.37,0,1,0-6.7,0,3.37,3.37,0,1,0,6.7,0Z"/><path class="cls-2" d="M103.93,65.49A3.93,3.93,0,0,0,107,66.9c1.3,0,2-.52,2-1.31,0-2.17-6.09-.88-6.09-5.13,0-2.26,1.83-3.84,4.88-3.84a6.37,6.37,0,0,1,4.31,1.51L110.4,60a3.85,3.85,0,0,0-2.52-1c-1.17,0-1.81.52-1.81,1.34,0,2.44,6.23,1,6.23,5.23,0,2.17-1.83,3.7-5,3.7a6.88,6.88,0,0,1-5.23-1.93Z"/><path class="cls-2" d="M113.87,63a6.55,6.55,0,1,1,6.54,6.33A6.22,6.22,0,0,1,113.87,63Zm9.89,0a3.37,3.37,0,1,0-3.35,3.71A3.42,3.42,0,0,0,123.76,63Z"/><path class="cls-2" d="M130.23,65.49a3.92,3.92,0,0,0,3.06,1.41c1.29,0,2-.52,2-1.31,0-2.17-6.1-.88-6.1-5.13,0-2.26,1.83-3.84,4.88-3.84a6.35,6.35,0,0,1,4.31,1.51L136.69,60a3.83,3.83,0,0,0-2.51-1c-1.17,0-1.81.52-1.81,1.34,0,2.44,6.23,1,6.23,5.23,0,2.17-1.83,3.7-5,3.7a6.85,6.85,0,0,1-5.23-1.93Z"/><path class="cls-2" d="M152.64,56.93v12H150.1l-.35-1.48a5,5,0,0,1-4,1.84c-3.13,0-5.58-2.38-5.58-6.33s2.45-6.33,5.58-6.33a5,5,0,0,1,4,1.85l.36-1.53Zm-2.78,6c0-2.14-1.34-3.72-3.3-3.72s-3.24,1.58-3.24,3.72,1.31,3.72,3.24,3.72S149.86,65.1,149.86,63Z"/></svg>