<svg id="Layer_1" data-name="Layer 1" xmlns="http://www.w3.org/2000/svg" width="50" height="35" viewBox="0 0 50 35"><defs><style>.cls-1{fill:#0c0f12;}</style></defs><title>media</title><path class="cls-1" d="M31.64,7.55H44.3V3.92H31.64V7.55Zm3,7.91a5.87,5.87,0,0,0-1.52,3.33H43a4.65,4.65,0,0,0-1.52-3.4,5,5,0,0,0-3.39-1.16,4.58,4.58,0,0,0-3.41,1.23Zm8.54-4.87A8.85,8.85,0,0,1,47,13.78a10.53,10.53,0,0,1,1.75,4.45,28.73,28.73,0,0,1,.19,4.28H33c.09,2.16.85,3.68,2.28,4.54a5.81,5.81,0,0,0,3.16.82,4.86,4.86,0,0,0,3.16-1,4.73,4.73,0,0,0,1.18-1.48h5.83a7.08,7.08,0,0,1-2.12,3.9q-2.92,3.14-8.21,3.13a12,12,0,0,1-7.69-2.65c-2.23-1.76-3.34-4.64-3.34-8.62,0-3.73,1-6.6,3-8.59a10.66,10.66,0,0,1,7.81-3,12.59,12.59,0,0,1,5.13,1ZM7,18.87v7.77h7.18a7.09,7.09,0,0,0,3-.51,3.68,3.68,0,0,0,1.94-3.64,3.12,3.12,0,0,0-1.88-3.13,7.66,7.66,0,0,0-3-.49ZM7,7.63v6.42h7.18a6,6,0,0,0,3.13-.72,2.73,2.73,0,0,0,1.2-2.56,2.61,2.61,0,0,0-1.59-2.69,11.38,11.38,0,0,0-3.49-.45Zm16-2a7.3,7.3,0,0,1,1.36,4.45A6.39,6.39,0,0,1,23,14.41a7.15,7.15,0,0,1-2.25,1.66,6.62,6.62,0,0,1,3.41,2.57,7.59,7.59,0,0,1,1.15,4.27A8.41,8.41,0,0,1,24,27.55a7.9,7.9,0,0,1-2.09,2.29,8.28,8.28,0,0,1-3.33,1.47,21.13,21.13,0,0,1-4.18.39H1.11V2.57H15.38q5.4.08,7.65,3.1Z"/></svg>