<svg id="Layer_1" data-name="Layer 1" xmlns="http://www.w3.org/2000/svg" width="60" height="87" viewBox="0 0 60 87">
  <defs>
    <style>
      .cls-1 {
        fill: #ffffff;
      }
    </style>
  </defs>
  <title>work</title>
  <g>
    <path class="cls-1" d="M54.73,57.19,5.27,85.75C2.62,87.27.47,86,.47,83V38.12a10.62,10.62,0,0,1,4.8-8.31L54.73,1.25C57.38-.27,59.53,1,59.53,4V48.88A10.62,10.62,0,0,1,54.73,57.19ZM5.27,31.44a7.5,7.5,0,0,0-3.39,5.87V82.16c0,2.15,1.52,3,3.39,2L54.73,55.56a7.5,7.5,0,0,0,3.39-5.87V4.84c0-2.15-1.52-3-3.39-1.95Z"/>
    <path class="cls-1" d="M10,41.27C7.85,42.52,6.09,41.5,6.09,39A8.66,8.66,0,0,1,10,32.24C12.16,31,13.92,32,13.92,34.5A8.64,8.64,0,0,1,10,41.27Zm0-7.4A5.56,5.56,0,0,0,7.51,38.2c0,1.59,1.12,2.23,2.49,1.44a5.54,5.54,0,0,0,2.5-4.33C12.5,33.72,11.38,33.07,10,33.87Z"/>
    <path class="cls-1" d="M19.28,35.92c-2.16,1.24-3.91.23-3.91-2.26a8.67,8.67,0,0,1,3.91-6.78c2.16-1.24,3.91-.23,3.91,2.26A8.67,8.67,0,0,1,19.28,35.92Zm0-7.41a5.54,5.54,0,0,0-2.5,4.33c0,1.59,1.12,2.24,2.5,1.44A5.51,5.51,0,0,0,21.78,30C21.78,28.37,20.66,27.72,19.28,28.51Z"/>
    <path class="cls-1" d="M28.56,30.56c-2.16,1.25-3.92.23-3.92-2.26a8.64,8.64,0,0,1,3.92-6.77c2.15-1.25,3.91-.24,3.91,2.25A8.69,8.69,0,0,1,28.56,30.56Zm0-7.4a5.51,5.51,0,0,0-2.5,4.32c0,1.59,1.12,2.24,2.5,1.45a5.56,5.56,0,0,0,2.49-4.33C31.05,23,29.93,22.36,28.56,23.16Z"/>
  </g>
</svg>
