<svg id="Layer_1" data-name="Layer 1" xmlns="http://www.w3.org/2000/svg" width="60" height="87" viewBox="0 0 60 87">
  <defs>
    <style>
      .cls-1 {
        fill: #ffffff;
      }
    </style>
  </defs>
  <title>work</title>
  <g>
    <path class="cls-1" d="M54.73,57.19,5.27,85.75C2.62,87.27.47,86,.47,83V38.12a10.62,10.62,0,0,1,4.8-8.31L54.73,1.25C57.38-.27,59.53,1,59.53,4V48.88A10.62,10.62,0,0,1,54.73,57.19ZM5.27,31.44a7.5,7.5,0,0,0-3.39,5.87V82.16c0,2.15,1.52,3,3.39,2L54.73,55.56a7.5,7.5,0,0,0,3.39-5.87V4.84c0-2.15-1.52-3-3.39-1.95Z"/>
    <g>
      <path class="cls-1" d="M21.76,57.14,9.49,55.91V54.19L21.67,39.72v2.71L12.06,53.59l9.7.65Z"/>
      <path class="cls-1" d="M27.5,53.54l-1.56.07,6.54-20.13,1.55,0Z"/>
      <path class="cls-1" d="M38.24,47.63V44.76l9.67-11.87-9.61-.06V30.12l12.21.38v1.72Z"/>
    </g>
  </g>
</svg>
